<?xml version="1.0" standalone="no"?>
<!DOCTYPE svg PUBLIC "-//W3C//DTD SVG 20010904//EN"
 "http://www.w3.org/TR/2001/REC-SVG-20010904/DTD/svg10.dtd">
<svg version="1.0" xmlns="http://www.w3.org/2000/svg"
 width="769.000000pt" height="234.000000pt" viewBox="0 0 769.000000 234.000000"
 preserveAspectRatio="xMidYMid meet">
<g transform="translate(0.000000,234.000000) scale(0.100000,-0.100000)"
fill="#000000" stroke="none">
<path d="M2765 2128 c-221 -383 -1155 -2012 -1155 -2015 0 -1 542 -3 1205 -3
663 0 1205 3 1205 6 0 4 -58 106 -129 228 -71 122 -339 588 -596 1036 -257
448 -471 819 -475 823 -4 5 -29 -29 -55 -75z m324 -1155 c149 -259 271 -474
271 -477 0 -3 -245 -6 -545 -6 -300 0 -545 3 -545 6 0 7 544 954 546 951 1 -1
123 -214 273 -474z"/>
<path d="M210 1160 l0 -880 625 0 625 0 0 195 0 195 -415 0 -415 0 0 685 0
685 -210 0 -210 0 0 -880z"/>
<path d="M4180 1845 l0 -195 460 0 460 0 -123 -122 c-68 -68 -280 -287 -470
-488 l-347 -365 0 -197 0 -198 745 0 745 0 0 195 0 195 -455 2 -455 3 138 145
c75 80 280 300 455 488 l317 342 0 195 0 195 -735 0 -735 0 0 -195z"/>
<path d="M5797 2027 c4 -8 155 -228 336 -489 l327 -476 0 -391 0 -391 210 0
210 0 0 390 0 389 318 463 c175 255 326 475 336 491 l18 27 -234 0 -234 0
-173 -255 c-95 -140 -188 -275 -205 -300 l-33 -45 -20 22 c-11 13 -104 148
-208 301 l-187 277 -235 0 c-192 0 -233 -2 -226 -13z"/>
</g>
</svg>
