<svg version="1.2" xmlns="http://www.w3.org/2000/svg" viewBox="0 0 98 72" width="98" height="72">
	<title>noun-sloth-7062197</title>
	<style>
		tspan { white-space:pre } 
		.s0 { fill: #404040 } 
		.t1 { font-size: 5px;fill: #000000;font-family: "Arbeit  Regular" } 
	</style>
	<path class="s0" d="m96.4 40.1c-0.9-11.1-6.9-22-15.6-28.8-9.3-7.4-20.9-10.2-32.5-10.2-0.1 0-0.2-0.1-0.3-0.1 0 0-0.1 0.1-0.3 0.1-11.3 0-22.9 2.8-31.5 10.6-8.1 7.4-14.4 18.1-14.7 29.2-0.1 5.9 1.2 12.1 5.3 16.5 3.3 3.7 7.8 6.3 12.4 8.2 9.9 3.9 20.8 5.6 31.4 5.3h0.1c19.5-0.6 47.6-6.8 45.7-30.8zm-6 9.8c-2 8-9.8 12.2-17.2 14.5-8.1 2.3-16.6 3.3-25 3.3-8.3 0-17.1-0.8-25.1-3.4-6.9-2.4-14.7-6.6-16.3-14.3-2.3-10.1 2.9-21.2 10.7-27.5 9.1-7.2 20.9-7.1 30.6-1.1 9.8-6.1 22-6 31.4 1 7.7 5.9 13.5 17.8 10.9 27.5zm-33.8-3c-0.7 1.3-2.1 1.8-3.5 1.8-1.6 0-2.6-0.8-3.2-2.1 1.6-0.7 3.7-1.9 3.8-3.8 0-2.4-3.5-2.6-5.1-2.6-1.7-0.1-5 0.2-5.1 2.6 0 1.9 2 3.1 3.8 3.6-0.5 1.2-1.4 2.1-2.8 2.2-1.6 0.2-3.2-0.3-3.9-1.7-0.6-1.3-2.6-0.1-1.9 1.2 2 3.8 7.5 3.5 9.9 0.5 2.4 3 7.9 3.3 9.9-0.5 0.7-1.3-1.3-2.5-1.9-1.2zm3.1-8.2c-1.1 6.2 5.9 9 10.6 11.2 4.9 2.1 9.8 3.9 14.1 7.2 1.9-1.7 3.3-3.6 4.1-6.1 1.2-3.3 1.3-6.8 0.6-10.3-4.7-3.6-10.3-6.7-16.1-7.8-4.9-1.1-12.3-0.4-13.3 5.8zm10.3 4c-1 0-1.6-1.2-1.6-2.6 0-1.6 0.6-2.7 1.6-2.7 0.8 0 1.5 1.1 1.5 2.7 0 1.4-0.7 2.6-1.5 2.6zm-46.2-9.8c-5.6 1.4-10.8 4.1-15.4 7.5-0.1 0.2-0.2 0.2-0.3 0.2-1 4-0.7 8 0.9 11.5 1 1.9 2.2 3.4 3.7 4.9 4.2-3.2 9.2-5 14-7.1 4.3-2 12.1-5.1 10.7-11.2-1.6-6.1-8.3-7.1-13.6-5.8zm25.1 11.8c-0.9-0.4-2.7-1-3-1.8 0 0 0.1-0.1 0.2-0.1 0.8-0.4 1.7-0.4 2.5-0.4 0.8-0.1 1.6 0 2.5 0.3 0.1 0.1 0.2 0.1 0.2 0.2-0.1 0.7-1.5 1.3-2.4 1.8zm-21.7-2c-0.8 0-1.5-1.2-1.5-2.6 0-1.6 0.7-2.7 1.5-2.7 1 0 1.6 1.1 1.6 2.7 0 1.4-0.6 2.6-1.6 2.6z"/>
	<text id="Created by Rafi Al Hakim" style="transform: matrix(1,0,0,1,-0.979,103.516)" >
		<tspan x="0" y="0" class="t1">Created by Rafi Al Hakim
</tspan>
	</text>
	<text id="from Noun Project" style="transform: matrix(1,0,0,1,-0.977,108.516)" >
		<tspan x="0" y="0" class="t1">from Noun Project
</tspan>
	</text>
</svg>