<svg version="1.2" xmlns="http://www.w3.org/2000/svg" viewBox="0 0 500 500" width="500" height="500"><style>.a{fill:#404040}</style><path class="a" d="m491.8 270.5c-4.6-55.5-35.2-110-79.6-144-47.4-37-106.6-51-165.8-51-0.5 0-1-0.5-1.5-0.5 0 0-0.5 0.5-1.5 0.5-57.7 0-116.9 14-160.7 53-41.4 37-73.5 90.5-75 146-0.6 29.5 6.1 60.5 27 82.5 16.8 18.5 39.8 31.5 63.3 41 50.5 19.5 106.1 28 160.2 26.5h0.5c99.5-3 242.8-34 233.1-154zm-30.6 49c-10.2 40-50 61-87.7 72.5-41.4 11.5-84.7 16.5-127.6 16.5-42.3 0-87.2-4-128-17-35.2-12-75-33-83.2-71.5-11.7-50.5 14.8-106 54.6-137.5 46.4-36 106.6-35.5 156.1-5.5 50-30.5 112.3-30 160.2 5 39.3 29.5 68.9 89 55.6 137.5zm-172.4-15c-3.6 6.5-10.7 9-17.9 9-8.1 0-13.2-4-16.3-10.5 8.2-3.5 18.9-9.5 19.4-19 0-12-17.9-13-26-13-8.7-0.5-25.6 1-26.1 13 0 9.5 10.2 15.5 19.4 18-2.5 6-7.1 10.5-14.3 11-8.1 1-16.3-1.5-19.9-8.5-3-6.5-13.2-0.5-9.7 6 10.3 19 38.3 17.5 50.6 2.5 12.2 15 40.3 16.5 50.5-2.5 3.5-6.5-6.7-12.5-9.7-6zm15.8-41c-5.6 31 30.1 45 54.1 56 25 10.5 50 19.5 71.9 36 9.7-8.5 16.8-18 20.9-30.5 6.2-16.5 6.7-34 3.1-51.5-24-18-52.6-33.5-82.2-39-25-5.5-62.7-2-67.8 29zm52.5 20c-5.1 0-8.1-6-8.1-13 0-8 3-13.5 8.1-13.5 4.1 0 7.7 5.5 7.7 13.5 0 7-3.6 13-7.7 13zm-235.7-49c-28.5 7-55.1 20.5-78.5 37.5-0.6 1-1.1 1-1.6 1-5.1 20-3.5 40 4.6 57.5 5.1 9.5 11.2 17 18.9 24.5 21.4-16 46.9-25 71.4-35.5 22-10 61.8-25.5 54.6-56-8.1-30.5-42.3-35.5-69.4-29zm128.1 59c-4.6-2-13.8-5-15.3-9 0 0 0.5-0.5 1-0.5 4.1-2 8.7-2 12.8-2 4-0.5 8.1 0 12.7 1.5 0.5 0.5 1 0.5 1 1-0.5 3.5-7.6 6.5-12.2 9zm-110.7-10c-4.1 0-7.7-6-7.7-13 0-8 3.6-13.5 7.7-13.5 5.1 0 8.1 5.5 8.1 13.5 0 7-3 13-8.1 13z"/></svg>